<svg width="57" height="28" viewBox="0 0 57 28" fill="none" xmlns="http://www.w3.org/2000/svg">
<g id="Logo" clip-path="url(#clip0_13_451)">
<g id="Vector">
<path d="M0.929199 20.6471L6.67762 11.7024H1.61018C1.56723 11.4447 1.54883 11.1625 1.54883 10.8496C1.54883 10.549 1.56723 10.2729 1.61018 10.0214H9.81256L9.91686 10.2975L4.12549 19.2606H9.5549C9.59784 19.5428 9.61625 19.8373 9.61625 20.1317C9.61625 20.4139 9.59784 20.6839 9.5549 20.9415H1.03349L0.929199 20.6471Z" fill="#4C4C4D"/>
<path d="M17.5181 13.7454C17.5181 12.9049 17.3033 12.3282 16.88 11.9969C16.4567 11.6718 15.8371 11.5062 15.0273 11.5062C14.5304 11.5062 14.0641 11.543 13.6347 11.6227C13.1991 11.7025 12.7819 11.8006 12.3647 11.9295C12.0948 11.4632 11.9598 10.8988 11.9598 10.2485C12.4445 10.0951 12.9721 9.97242 13.5549 9.88653C14.1377 9.80065 14.696 9.7577 15.2359 9.7577C16.653 9.7577 17.7328 10.0829 18.4751 10.727C19.2113 11.3712 19.5855 12.408 19.5855 13.8252V20.6595C19.0886 20.7699 18.4874 20.8926 17.7757 21.0091C17.0641 21.1318 16.3402 21.1871 15.604 21.1871C14.9107 21.1871 14.2788 21.1257 13.7206 20.9969C13.1623 20.868 12.6837 20.6656 12.2911 20.3773C11.8985 20.095 11.5979 19.7331 11.3831 19.2914C11.1684 18.8497 11.0641 18.3159 11.0641 17.6963C11.0641 17.0889 11.1868 16.5491 11.4384 16.0889C11.6838 15.6288 12.0212 15.2423 12.4506 14.9417C12.8739 14.635 13.3647 14.408 13.923 14.2607C14.4751 14.1135 15.058 14.0337 15.6715 14.0337C16.1254 14.0337 16.4997 14.046 16.788 14.0644C17.0764 14.0828 17.3217 14.1135 17.5242 14.138V13.7454H17.5181ZM17.5181 15.8129C17.3033 15.7822 17.0334 15.7577 16.7083 15.727C16.3831 15.6963 16.107 15.684 15.88 15.684C14.9966 15.684 14.3279 15.8497 13.8678 16.1748C13.4077 16.5 13.1745 16.9969 13.1745 17.6656C13.1745 18.0889 13.2543 18.4263 13.4077 18.6656C13.561 18.9049 13.7574 19.0889 13.9905 19.2178C14.2236 19.3466 14.4813 19.4263 14.7696 19.4509C15.0518 19.4816 15.3218 19.4938 15.5794 19.4938C15.9046 19.4938 16.242 19.4754 16.5917 19.4386C16.9414 19.4018 17.2481 19.3527 17.5181 19.2791V15.8129Z" fill="#4C4C4D"/>
<path d="M21.8861 10.0218C22.0272 9.99117 22.1744 9.97277 22.3217 9.9605C22.4689 9.94823 22.6223 9.94209 22.7818 9.94209C22.9229 9.94209 23.0701 9.94823 23.2296 9.9605C23.383 9.97277 23.5364 9.99731 23.6775 10.0218C23.6897 10.0525 23.7082 10.1384 23.7327 10.2856C23.7511 10.4329 23.7756 10.5924 23.794 10.7642C23.8124 10.936 23.837 11.0955 23.8554 11.255C23.8738 11.4145 23.8861 11.5126 23.8861 11.5556C24.0272 11.3286 24.1989 11.1077 24.3953 10.893C24.5916 10.6783 24.8308 10.4881 25.1069 10.3163C25.383 10.1445 25.6959 10.0096 26.0456 9.91142C26.3952 9.81326 26.7817 9.76418 27.2051 9.76418C27.8431 9.76418 28.4382 9.86847 28.9842 10.0832C29.5302 10.2979 29.9964 10.6231 30.3891 11.0709C30.7817 11.5188 31.0823 12.0893 31.3032 12.7764C31.524 13.4635 31.6345 14.2795 31.6345 15.2181C31.6345 17.0954 31.1253 18.5617 30.113 19.6169C29.0946 20.6721 27.659 21.2058 25.8002 21.2058C25.4873 21.2058 25.1683 21.1874 24.8431 21.1445C24.518 21.1015 24.2296 21.0463 23.9904 20.9727V25.9788C23.8186 26.0095 23.6407 26.0279 23.4444 26.0401C23.2542 26.0524 23.0763 26.0585 22.9229 26.0585C22.7695 26.0585 22.5916 26.0524 22.4014 26.0401C22.2112 26.0279 22.0333 26.0033 21.8799 25.9788V10.0218H21.8861ZM23.9965 19.1567C24.2664 19.2549 24.5425 19.3285 24.8247 19.3715C25.1069 19.4144 25.475 19.4328 25.9351 19.4328C26.4443 19.4328 26.9167 19.3531 27.34 19.1874C27.7633 19.0218 28.1314 18.7702 28.4382 18.4328C28.7449 18.0893 28.9842 17.6598 29.1621 17.1445C29.34 16.6292 29.4259 16.0095 29.4259 15.304C29.4259 14.1691 29.2173 13.2672 28.8001 12.5985C28.383 11.9298 27.6959 11.5985 26.7449 11.5985C26.3891 11.5985 26.0517 11.6599 25.7204 11.7887C25.3953 11.9175 25.1008 12.1077 24.8492 12.3654C24.5916 12.6231 24.3891 12.9421 24.2296 13.3347C24.0701 13.7273 23.9965 14.1875 23.9965 14.7273V19.1567Z" fill="#4C4C4D"/>
<path d="M34.2602 11.6778H32.8737C32.843 11.5612 32.8246 11.4324 32.8124 11.2852C32.8001 11.1379 32.794 10.9907 32.794 10.8496C32.794 10.7085 32.8001 10.5613 32.8124 10.414C32.8246 10.2668 32.8492 10.1318 32.8737 10.0214H36.3277V20.9477C36.1743 20.9784 35.9964 20.9968 35.8062 21.009C35.616 21.0213 35.4381 21.0274 35.2847 21.0274C35.1436 21.0274 34.978 21.0213 34.7817 21.009C34.5915 20.9968 34.4136 20.9722 34.2602 20.9477V11.6778Z" fill="#4C4C4D"/>
<path d="M40.8614 16.0032C40.892 17.1934 41.1988 18.0707 41.7877 18.6228C42.3767 19.175 43.2479 19.451 44.3951 19.451C45.4012 19.451 46.3644 19.2731 47.2724 18.9173C47.3889 19.132 47.4809 19.3897 47.5484 19.6964C47.6221 20.0032 47.6589 20.3038 47.6773 20.6044C47.211 20.8007 46.6957 20.9541 46.1313 21.0522C45.573 21.1504 44.9472 21.1995 44.2663 21.1995C43.2724 21.1995 42.4196 21.0584 41.708 20.7823C40.9963 20.5062 40.4135 20.1136 39.9534 19.6105C39.4933 19.1075 39.1559 18.5124 38.9411 17.8191C38.7264 17.132 38.6221 16.3774 38.6221 15.5492C38.6221 14.7394 38.7264 13.9848 38.9289 13.2793C39.1313 12.5738 39.4503 11.9664 39.8736 11.445C40.297 10.9296 40.8368 10.5125 41.481 10.2118C42.1252 9.90509 42.892 9.75172 43.7693 9.75172C44.5239 9.75172 45.1804 9.88055 45.7509 10.1382C46.3214 10.3959 46.7938 10.7456 47.1803 11.1934C47.5607 11.6413 47.8552 12.175 48.0515 12.7885C48.2478 13.4081 48.3521 14.0768 48.3521 14.8008C48.3521 14.9971 48.346 15.2118 48.3276 15.4265C48.3153 15.6474 48.2969 15.8376 48.2846 15.9909H40.8614V16.0032ZM46.2724 14.4265C46.2724 14.0278 46.2172 13.6474 46.1129 13.2854C46.0086 12.9235 45.8491 12.6106 45.6466 12.3407C45.438 12.0707 45.1804 11.856 44.8613 11.6904C44.5423 11.5247 44.162 11.445 43.7202 11.445C42.8552 11.445 42.1926 11.7088 41.7264 12.2302C41.2663 12.7578 40.9841 13.4879 40.8859 14.4265H46.2724Z" fill="#4C4C4D"/>
<path d="M50.6834 10.0214C50.8368 9.99071 50.9902 9.97231 51.1313 9.96004C51.2724 9.94777 51.4196 9.94163 51.5791 9.94163C51.7325 9.94163 51.892 9.94777 52.0454 9.96004C52.1987 9.97231 52.346 9.99685 52.4687 10.0214C52.5116 10.2361 52.5546 10.5122 52.5975 10.8619C52.6405 11.2116 52.6589 11.506 52.6589 11.7453C52.9595 11.2606 53.3521 10.8435 53.8429 10.4876C54.3337 10.1318 54.9595 9.9539 55.7263 9.9539C55.8429 9.9539 55.9594 9.96004 56.076 9.96617C56.1987 9.97231 56.2969 9.98458 56.3828 9.99685C56.4134 10.1257 56.4318 10.2606 56.4441 10.4017C56.4564 10.5429 56.4625 10.6901 56.4625 10.8496C56.4625 11.0214 56.4502 11.1993 56.4318 11.3833C56.4134 11.5674 56.3828 11.7453 56.3582 11.9171C56.2417 11.8864 56.1251 11.8741 56.0085 11.8741C55.8858 11.8741 55.7938 11.8741 55.7202 11.8741C55.3398 11.8741 54.9717 11.9293 54.622 12.0336C54.2723 12.1379 53.9595 12.3281 53.6834 12.5981C53.4073 12.868 53.1865 13.2361 53.0208 13.7085C52.8552 14.1747 52.7754 14.7821 52.7754 15.5183V20.9477C52.6221 20.9784 52.4441 20.9968 52.254 21.009C52.0638 21.0213 51.8859 21.0274 51.7325 21.0274C51.5791 21.0274 51.4012 21.0213 51.211 21.009C51.0208 20.9968 50.8368 20.9722 50.665 20.9477V10.0214H50.6834Z" fill="#4C4C4D"/>
<path d="M38.3337 3.59222H36.2724L37.7325 2.13211C37.6159 1.9726 37.4871 1.81923 37.3521 1.67813C37.211 1.53702 37.0638 1.40819 36.8981 1.29776L35.438 2.75787V0.69654C35.2478 0.665866 35.0515 0.647461 34.8491 0.647461H34.8429C34.6405 0.647461 34.4442 0.665866 34.254 0.69654V2.75787L32.7939 1.29776C32.6344 1.41433 32.481 1.54316 32.3399 1.67813C32.1988 1.81923 32.0761 1.96647 31.9595 2.13211L33.4258 3.59222H31.3644C31.3644 3.59222 31.3154 3.97872 31.3154 4.18118C31.3154 4.38363 31.3338 4.57995 31.3644 4.77013H33.4258L31.9657 6.23024C32.1927 6.54926 32.4749 6.83146 32.8 7.06459L34.2601 5.60448V7.66581C34.4503 7.69649 34.6466 7.71489 34.8491 7.71489H34.8552C35.0577 7.71489 35.254 7.69649 35.4442 7.66581V5.60448L36.9043 7.06459C37.0638 6.94803 37.2172 6.81919 37.3583 6.68423C37.4994 6.54312 37.6282 6.39588 37.7386 6.23024L36.2785 4.77013H38.3398C38.3705 4.57995 38.3889 4.38363 38.3889 4.18118V4.17504C38.3828 3.97872 38.3705 3.78241 38.3337 3.59222ZM35.7325 4.18731C35.7325 4.45111 35.6834 4.70265 35.5975 4.93577C35.3644 5.02166 35.1129 5.07074 34.8491 5.07074C34.5853 5.07074 34.3337 5.02166 34.1006 4.93577C34.0147 4.70265 33.9656 4.45111 33.9656 4.18731V4.18118C33.9656 3.91738 34.0147 3.66584 34.1006 3.43272C34.3337 3.34683 34.5853 3.29775 34.8491 3.29775C35.1129 3.29775 35.3644 3.34683 35.5975 3.43272C35.6834 3.66584 35.7325 3.91738 35.7325 4.18731Z" fill="#4C4C4D"/>
</g>
</g>
<defs>
<clipPath id="clip0_13_451">
<rect width="56" height="28" fill="white" transform="translate(0.928711)"/>
</clipPath>
</defs>
</svg>
