<svg width="83" height="28" viewBox="0 0 83 28" fill="none" xmlns="http://www.w3.org/2000/svg">
<g id="Logo" clip-path="url(#clip0_13_455)">
<path id="Vector" d="M13.2463 1.7959C6.48085 1.7959 0.996094 7.28051 0.996094 14.046C0.996094 20.8117 6.48085 26.2959 13.2463 26.2959C20.0125 26.2959 25.4967 20.8117 25.4967 14.046C25.4967 7.28094 20.0125 1.79648 13.2462 1.79648L13.2463 1.7959ZM18.8642 19.464C18.6448 19.8239 18.1737 19.938 17.8139 19.7171C14.9377 17.9602 11.3168 17.5623 7.05267 18.5366C6.64176 18.6302 6.23217 18.3727 6.13855 17.9617C6.04449 17.5506 6.30092 17.141 6.71286 17.0474C11.3793 15.9813 15.3821 16.4403 18.6111 18.4137C18.971 18.6346 19.0851 19.1042 18.8642 19.464ZM20.3636 16.1285C20.0871 16.5778 19.4991 16.7197 19.05 16.4433C15.7571 14.4193 10.7377 13.8331 6.8429 15.0154C6.33779 15.168 5.80429 14.8833 5.65099 14.3791C5.49885 13.8739 5.78366 13.3415 6.2879 13.1879C10.7368 11.838 16.2677 12.4919 20.0491 14.8156C20.4982 15.092 20.6401 15.6801 20.3636 16.1286V16.1285ZM20.4923 12.6551C16.5441 10.31 10.0301 10.0944 6.26055 11.2385C5.65523 11.4221 5.01509 11.0804 4.83165 10.475C4.64821 9.86943 4.98964 9.22973 5.5954 9.04571C9.92261 7.73208 17.1161 7.98589 21.6617 10.6844C22.2074 11.0075 22.3858 11.7107 22.0625 12.2544C21.7407 12.7989 21.0356 12.9784 20.4929 12.6551H20.4923ZM34.3249 13.1045C32.2097 12.6001 31.8337 12.2461 31.8337 11.5022C31.8337 10.7995 32.4949 10.3266 33.4794 10.3266C34.4332 10.3266 35.3782 10.6857 36.37 11.425C36.3992 11.4474 36.4373 11.4563 36.4738 11.4505C36.5119 11.4449 36.544 11.4246 36.566 11.394L37.5987 9.93818C37.6412 9.87821 37.6295 9.79556 37.5724 9.74977C36.3919 8.80288 35.0636 8.34252 33.5101 8.34252C31.2266 8.34252 29.6307 9.71305 29.6307 11.674C29.6307 13.7768 31.0072 14.5214 33.3858 15.0961C35.4089 15.5623 35.7512 15.9529 35.7512 16.651C35.7512 17.4248 35.0607 17.9061 33.949 17.9061C32.7143 17.9061 31.7064 17.4892 30.5801 16.5149C30.5523 16.4901 30.5142 16.4798 30.4791 16.4813C30.4411 16.4842 30.4074 16.5018 30.384 16.5296L29.2255 17.9076C29.1772 17.9661 29.183 18.0509 29.2386 18.1007C30.5493 19.2709 32.1614 19.8882 33.9022 19.8882C36.3626 19.8882 37.9528 18.5439 37.9528 16.4623C37.9571 14.7059 36.9054 13.7331 34.3293 13.1064L34.3249 13.1045ZM43.5203 11.0185C42.4539 11.0185 41.5791 11.4386 40.8565 12.2995V11.3305C40.8565 11.254 40.795 11.1917 40.719 11.1917H38.8246C38.7485 11.1917 38.6871 11.254 38.6871 11.3305V22.0971C38.6871 22.1732 38.7485 22.2361 38.8246 22.2361H40.719C40.795 22.2361 40.8565 22.1732 40.8565 22.0971V18.699C41.5791 19.5079 42.4539 19.9043 43.5203 19.9043C45.5025 19.9043 47.5095 18.3786 47.5095 15.4618C47.5124 12.5445 45.5054 11.0183 43.5218 11.0183L43.5203 11.0185ZM45.3064 15.4618C45.3064 16.9465 44.3922 17.9836 43.0815 17.9836C41.7868 17.9836 40.8097 16.8997 40.8097 15.4618C40.8097 14.0239 41.7868 12.9402 43.0815 12.9402C44.3702 12.9401 45.3064 14.0003 45.3064 15.4617V15.4618ZM52.6513 11.0185C50.0987 11.0185 48.099 12.984 48.099 15.4936C48.099 17.9763 50.0855 19.9204 52.6206 19.9204C55.182 19.9204 57.1876 17.9617 57.1876 15.4618C57.1876 12.9705 55.1952 11.0188 52.6513 11.0188V11.0185ZM52.6513 17.9983C51.2938 17.9983 50.2698 16.907 50.2698 15.4611C50.2698 14.0087 51.2587 12.9547 52.6206 12.9547C53.9869 12.9547 55.0167 14.0455 55.0167 15.4929C55.0167 16.945 54.022 17.9983 52.6513 17.9983ZM62.6381 11.1917H60.5536V9.06092C60.5536 8.98456 60.4921 8.92225 60.4161 8.92225H58.5217C58.4456 8.92225 58.3827 8.98456 58.3827 9.06092V11.1917H57.4728C57.3968 11.1917 57.3353 11.254 57.3353 11.3305V12.9582C57.3353 13.0346 57.3968 13.097 57.4728 13.097H58.3827V17.3093C58.3827 19.0105 59.2297 19.8736 60.9017 19.8736C61.5805 19.8736 62.1437 19.7332 62.6747 19.4318C62.7186 19.4084 62.7449 19.3616 62.7449 19.3119V17.7613C62.7449 17.7145 62.72 17.6691 62.6791 17.6443C62.6381 17.6179 62.5869 17.6165 62.5445 17.6384C62.1802 17.8213 61.8277 17.9061 61.4327 17.9061C60.8257 17.9061 60.5536 17.6296 60.5536 17.0123V13.0978H62.6381C62.7142 13.0978 62.7756 13.0354 62.7756 12.9589V11.3314C62.7785 11.2549 62.7171 11.1926 62.6396 11.1926L62.6381 11.1917ZM69.8996 11.2V10.9383C69.8996 10.1684 70.1951 9.82511 70.8563 9.82511C71.2513 9.82511 71.5687 9.90352 71.9242 10.022C71.9681 10.0358 72.0134 10.0289 72.0485 10.0027C72.0851 9.97651 72.1056 9.93453 72.1056 9.89006V8.2941C72.1056 8.2331 72.0676 8.17913 72.0076 8.16113C71.6331 8.04952 71.1533 7.93498 70.4336 7.93498C68.6855 7.93498 67.7595 8.92005 67.7595 10.7827V11.1835H66.8496C66.7736 11.1835 66.7107 11.2458 66.7107 11.3222V12.9582C66.7107 13.0346 66.7736 13.097 66.8496 13.097H67.7595V19.5927C67.7595 19.6703 67.8224 19.7317 67.8985 19.7317H69.7914C69.8689 19.7317 69.9304 19.6703 69.9304 19.5927V13.0975H71.6989L74.4081 19.5927C74.1009 20.2744 73.7981 20.4105 73.3856 20.4105C73.052 20.4105 72.6995 20.311 72.3411 20.1135C72.3075 20.096 72.2665 20.093 72.2314 20.1033C72.1948 20.1164 72.1641 20.1428 72.1495 20.1779L71.5073 21.5866C71.4766 21.6539 71.5029 21.7314 71.5673 21.7665C72.2372 22.1293 72.8414 22.2844 73.5889 22.2844C74.9874 22.2844 75.7612 21.6319 76.4414 19.8795L79.727 11.3896C79.7445 11.3469 79.7387 11.2986 79.7123 11.2607C79.6875 11.2231 79.6451 11.2005 79.5997 11.2005H77.6278C77.5678 11.2005 77.5152 11.2381 77.4961 11.2935L75.476 17.062L73.2642 11.2897C73.2437 11.236 73.1925 11.2005 73.1354 11.2005H69.8996V11.2ZM65.6896 11.1917H63.7952C63.7191 11.1917 63.6562 11.254 63.6562 11.3305V19.5927C63.6562 19.6703 63.7191 19.7317 63.7952 19.7317H65.6896C65.7657 19.7317 65.8286 19.6703 65.8286 19.5927V11.3311C65.8286 11.2546 65.7671 11.1923 65.6896 11.1923V11.1917ZM64.7534 7.42942C64.0029 7.42942 63.3944 8.03679 63.3944 8.78708C63.3944 9.53781 64.0029 10.1459 64.7534 10.1459C65.5038 10.1459 66.1109 9.53781 66.1109 8.78708C66.1109 8.03694 65.5023 7.42942 64.7534 7.42942ZM81.3449 13.8483C80.5959 13.8483 80.0122 13.2464 80.0122 12.5154C80.0122 11.7844 80.6032 11.1756 81.3522 11.1756C82.1012 11.1756 82.6848 11.7774 82.6848 12.5078C82.6848 13.2388 82.0938 13.8483 81.3449 13.8483ZM81.3522 11.3081C80.669 11.3081 80.1526 11.8508 80.1526 12.5154C80.1526 13.1797 80.6661 13.7151 81.3449 13.7151C82.028 13.7151 82.5444 13.1728 82.5444 12.5078C82.5444 11.8435 82.0309 11.3081 81.3522 11.3081ZM81.6477 12.6449L82.0251 13.1727H81.7062L81.3668 12.6885H81.0757V13.1727H80.8095V11.7736H81.4326C81.7588 11.7736 81.9724 11.9399 81.9724 12.2199C81.9739 12.4493 81.8408 12.5894 81.6491 12.6449H81.6477ZM81.4224 12.0137H81.0757V12.4562H81.4224C81.595 12.4562 81.6989 12.3715 81.6989 12.2347C81.6989 12.0907 81.595 12.0137 81.4224 12.0137Z" fill="#4C4C4D"/>
</g>
<defs>
<clipPath id="clip0_13_455">
<rect width="81.6667" height="28" fill="white" transform="translate(0.952148)"/>
</clipPath>
</defs>
</svg>
