<svg width="79" height="28" viewBox="0 0 79 28" fill="none" xmlns="http://www.w3.org/2000/svg">
<g id="Logo" clip-path="url(#clip0_13_468)">
<path id="Vector" d="M9.10299 3.5H0.565918V23.9167L9.10299 3.5Z" fill="#4C4C4D"/>
<path id="Vector_2" d="M15.1094 3.5H23.6353V23.9167L15.1094 3.5Z" fill="#4C4C4D"/>
<path id="Vector_3" d="M12.1059 11.0249L17.5396 23.9167H13.9746L12.3506 19.8122H8.37402L12.1059 11.0249Z" fill="#4C4C4D"/>
<path id="Vector_4" d="M37.5634 16.4827L38.5701 19.3692C38.6034 19.4415 38.6535 19.4749 38.7425 19.4749H40.6779C40.7836 19.4749 40.8003 19.4248 40.7836 19.3191L36.7848 8.2126C36.7681 8.12362 36.7514 8.10693 36.6624 8.10693H34.2598C34.1931 8.10693 34.1541 8.15699 34.1541 8.22929C34.1208 8.81326 34.0707 8.99123 33.9984 9.16364L30.4334 19.3025C30.4167 19.4248 30.4557 19.4749 30.5558 19.4749H32.2854C32.3911 19.4749 32.4412 19.4415 32.4801 19.3358L33.4311 16.4827H37.5634ZM33.9817 14.5973C34.5045 13.0178 35.1942 10.9934 35.4722 9.83659H35.4889C35.8338 11.049 36.6457 13.4516 37.0128 14.5973H33.9817Z" fill="#4C4C4D"/>
<path id="Vector_5" d="M45.9241 19.6466C46.9641 19.6466 48.0709 19.4576 49.1943 18.9737C49.2833 18.9403 49.3 18.9014 49.3 18.818C49.2666 18.5065 49.2277 18.056 49.2277 17.7112V7.25538C49.2277 7.18864 49.2277 7.15527 49.1443 7.15527H47.2589C47.1866 7.15527 47.1532 7.18864 47.1532 7.27763V10.8204C46.8585 10.787 46.6527 10.7703 46.408 10.7703C43.3658 10.7703 41.4971 12.7781 41.4971 15.2863C41.4971 18.1951 43.4158 19.6466 45.9241 19.6466ZM47.1532 17.7112C46.8418 17.8113 46.497 17.8502 46.1466 17.8502C44.7673 17.8502 43.6383 17.0716 43.6383 15.1807C43.6383 13.5066 44.8007 12.5167 46.3412 12.5167C46.6527 12.5167 46.9252 12.55 47.1532 12.639V17.7112Z" fill="#4C4C4D"/>
<path id="Vector_6" d="M55.3135 10.7715C52.7162 10.7715 51.1089 12.7625 51.1089 15.2208C51.1089 17.4176 52.3881 19.6478 55.2745 19.6478C57.7161 19.6478 59.4291 17.8514 59.4291 15.1652C59.4291 12.7959 57.9775 10.7715 55.3135 10.7715ZM55.2078 12.5178C56.6761 12.5178 57.299 13.7803 57.299 15.2208C57.299 17.0005 56.3813 17.8848 55.3135 17.8848C53.9954 17.8848 53.2167 16.778 53.2167 15.1818C53.2167 13.5412 54.0454 12.5178 55.2078 12.5178Z" fill="#4C4C4D"/>
<path id="Vector_7" d="M61.3792 7.15527C61.3069 7.15527 61.2568 7.18864 61.2568 7.27763V19.1127C61.2568 19.1628 61.3069 19.2518 61.3792 19.2685C62.2079 19.5243 63.0755 19.6466 63.9709 19.6466C66.5348 19.6466 69.0264 18.056 69.0264 14.8525C69.0264 12.5333 67.4358 10.7703 64.9442 10.7703C64.3713 10.7703 63.8374 10.8593 63.3702 11.015L63.348 7.29431C63.348 7.17196 63.3146 7.15527 63.1923 7.15527H61.3792ZM66.8963 15.0639C66.8963 16.9826 65.5838 17.8836 64.1656 17.8836C63.8708 17.8836 63.6094 17.8669 63.3702 17.7946V12.7447C63.6428 12.639 63.9709 12.55 64.5771 12.55C65.9453 12.55 66.8963 13.4176 66.8963 15.0639Z" fill="#4C4C4D"/>
<path id="Vector_8" d="M76.0627 15.6879C76.9081 15.6879 77.6033 15.6713 77.8424 15.6156C77.9314 15.599 77.9648 15.5656 77.9815 15.4933C78.0315 15.3042 78.0538 14.9093 78.0538 14.4255C78.0538 12.7792 77.0638 10.7715 74.5055 10.7715C71.8915 10.7715 70.4399 12.9016 70.4399 15.3042C70.4399 17.4343 71.5634 19.6478 74.7113 19.6478C75.8903 19.6478 76.6523 19.4587 77.3085 19.1473C77.3753 19.1139 77.4086 19.0583 77.4086 18.9582V17.5177C77.4086 17.4343 77.3586 17.4176 77.3085 17.451C76.6523 17.7291 75.9404 17.8681 75.1617 17.8681C73.3987 17.8681 72.5978 16.8948 72.5478 15.6879H76.0627ZM72.5478 14.1974C72.6868 13.3521 73.2207 12.4344 74.4165 12.4344C75.7346 12.4344 76.0794 13.5412 76.0794 14.0417C76.0794 14.0584 76.0794 14.1307 76.0794 14.1808C76.0071 14.1974 75.7846 14.1974 75.1284 14.1974H72.5478Z" fill="#4C4C4D"/>
</g>
<defs>
<clipPath id="clip0_13_468">
<rect width="77.5833" height="28" fill="white" transform="translate(0.56543)"/>
</clipPath>
</defs>
</svg>
