<svg width="66" height="28" viewBox="0 0 66 28" fill="none" xmlns="http://www.w3.org/2000/svg">
<g id="Logo" clip-path="url(#clip0_13_483)">
<path id="Vector" d="M9.60057 22.204C8.62648 22.3751 7.63526 22.4264 6.60989 22.563L3.48238 13.4029V22.9561C2.50829 23.0586 1.61964 23.1953 0.696777 23.332V5.83203H3.2945L6.84911 15.7614V5.83203H9.60057V22.204ZM14.9839 12.2407C16.0435 12.2407 17.6671 12.1894 18.6411 12.1894V14.9238C17.4277 14.9238 16.0093 14.9238 14.9839 14.975V19.0425C16.5904 18.94 18.1968 18.8031 19.8203 18.7519V21.3835L12.2495 21.9818V5.83203H19.8203V8.56641H14.9839V12.2407ZM29.9887 8.56647H27.1519V21.1446C26.229 21.1446 25.3061 21.1446 24.4176 21.1787V8.56647H21.5807V5.83203H29.9889L29.9887 8.56647ZM34.4321 12.0528H38.1748V14.7871H34.4321V20.9908H31.7488V5.83203H39.3882V8.56641H34.4321V12.0528ZM43.8315 18.5981C45.3867 18.6322 46.9589 18.7521 48.48 18.8374V21.5376C46.0361 21.3837 43.5923 21.2301 41.0972 21.1787V5.83203H43.8315V18.5981ZM50.7871 21.7256C51.6586 21.7769 52.5815 21.8282 53.4701 21.9306V5.83203H50.7871V21.7256ZM65.4502 5.83203L61.9809 14.1548L65.4502 23.332C64.4247 23.1953 63.3994 23.0073 62.3739 22.8364L60.4087 17.7779L58.4094 22.4264C57.418 22.2553 56.4609 22.204 55.4699 22.0673L58.9904 14.0522L55.8116 5.83203H58.7509L60.5453 10.4292L62.4595 5.83203H65.4502V5.83203Z" fill="#4C4C4D"/>
</g>
<defs>
<clipPath id="clip0_13_483">
<rect width="64.75" height="28" fill="white" transform="translate(0.696777)"/>
</clipPath>
</defs>
</svg>
